<?xml version="1.0" standalone="no"?>
<!DOCTYPE svg PUBLIC "-//W3C//DTD SVG 20010904//EN"
 "http://www.w3.org/TR/2001/REC-SVG-20010904/DTD/svg10.dtd">
<svg version="1.0" xmlns="http://www.w3.org/2000/svg"
 width="512.000000pt" height="512.000000pt" viewBox="0 0 512.000000 512.000000"
 preserveAspectRatio="xMidYMid meet">
<metadata>
Created by potrace 1.11, written by Peter Selinger 2001-2013
</metadata>
<g transform="translate(0.000000,512.000000) scale(0.100000,-0.100000)"
fill="#000000" stroke="none">
<path d="M1197 4790 c-55 -14 -131 -67 -170 -119 -73 -97 -68 76 -65 -2131 l3
-1985 24 -48 c29 -59 96 -126 154 -155 130 -65 300 -22 390 97 64 86 67 106
67 487 l0 343 81 -54 c196 -131 464 -231 679 -252 144 -15 402 -8 490 13 14 3
44 10 68 15 118 24 245 72 381 142 461 238 785 703 849 1215 9 74 9 320 0 397
-60 528 -408 1012 -893 1245 -126 60 -262 107 -365 126 -14 2 -35 6 -47 9 -87
20 -359 27 -485 12 -69 -7 -288 -62 -368 -92 -75 -27 -238 -112 -316 -164
l-73 -49 -3 361 c-3 358 -3 363 -27 410 -29 59 -96 126 -156 156 -52 26 -158
36 -218 21z m1528 -1283 c209 -48 350 -119 485 -243 261 -241 362 -591 276
-952 -46 -196 -198 -412 -375 -536 -111 -77 -211 -121 -346 -154 -97 -23 -314
-22 -415 2 -376 89 -654 376 -734 759 -13 66 -15 293 -3 345 42 172 95 292
177 401 192 258 477 396 800 386 63 -2 124 -6 135 -8z"/>
</g>
</svg>
