<?xml version="1.0" encoding="UTF-8"?>
<svg width="32px" height="28px" viewBox="0 0 20 28" version="1.1" xmlns="http://www.w3.org/2000/svg" xmlns:xlink="http://www.w3.org/1999/xlink">
    <title>Shape</title>
    <g id="Page-1" stroke="none" stroke-width="1" fill="none" fill-rule="evenodd">
        <g id="Logo" transform="translate(-6.000000, -2.000000)" fill="#012345">
            <path d="M8,2 C9.1045695,2 10,2.8954305 10,4 L9.99961134,7.99955958 C11.670999,6.74400498 13.7486137,6 16,6 C21.5228475,6 26,10.4771525 26,16 C26,21.5228475 21.5228475,26 16,26 C13.7486137,26 11.670999,25.255995 9.99961134,24.0004404 L10,28 C10,29.1045695 9.1045695,30 8,30 C6.8954305,30 6,29.1045695 6,28 L6,4 C6,2.8954305 6.8954305,2 8,2 Z M16,10 C12.6862915,10 10,12.6862915 10,16 C10,19.3137085 12.6862915,22 16,22 C19.3137085,22 22,19.3137085 22,16 C22,12.6862915 19.3137085,10 16,10 Z" id="Shape"></path>
        </g>
    </g>
</svg>